<?xml version="1.0" encoding="utf-8"?><svg version="1.1" id="Layer_1" xmlns="http://www.w3.org/2000/svg" xmlns:xlink="http://www.w3.org/1999/xlink" x="0px" y="0px" viewBox="0 0 122.88 101.9" style="enable-background:new 0 0 122.88 101.9" xml:space="preserve"><style type="text/css"><![CDATA[
	.st0{fill-rule:evenodd;clip-rule:evenodd;}
]]></style><g><path class="st0" d="M3.34,0h116.2c1.84,0,3.34,1.5,3.34,3.34v76.98c0,1.84-1.5,3.34-3.34,3.34H3.34C1.5,83.66,0,82.16,0,80.32 V3.34C0,1.5,1.5,0,3.34,0L3.34,0L3.34,0L3.34,0z M81.7,67.73L65.64,58v-6.17L81.7,42.1v7.33l-9.76,5.5l9.76,5.5V67.73L81.7,67.73 L81.7,67.73z M91.67,67.73L107.73,58v-6.17L91.67,42.1v7.33l9.76,5.5l-9.76,5.5V67.73L91.67,67.73L91.67,67.73z M38.64,43.98 l3.83,3.83c1.01,1.01,1.01,2.66,0,3.66l-3.08,3.08c0.85,1.59,1.5,3.3,1.91,5.1h3.99c1.42,0,2.59,1.17,2.59,2.59v5.41 c0,1.42-1.17,2.59-2.59,2.59h-4.36c-0.39,1.28-0.89,2.5-1.51,3.66h75.51c1.62,0,2.95-1.33,2.95-2.95V8.19 c0-1.62-1.32-2.95-2.95-2.95H7.96l0,0l0,0C6.33,5.24,5,6.57,5.01,8.19l0,34.61c1.01-0.79,2.5-0.73,3.42,0.21l3.08,3.08 c1.59-0.85,3.3-1.5,5.1-1.91v-3.99c0-1.42,1.17-2.58,2.59-2.58h5.41c1.42,0,2.59,1.17,2.59,2.59v4.35c1.76,0.54,3.43,1.3,4.95,2.26 l2.82-2.83C35.99,42.97,37.63,42.97,38.64,43.98L38.64,43.98L38.64,43.98L38.64,43.98z M21.22,52.3c6.6,0,11.95,5.35,11.95,11.96 c0,3.96-1.92,7.47-4.89,9.64H14.16c-2.97-2.17-4.89-5.68-4.89-9.64C9.27,57.65,14.62,52.3,21.22,52.3L21.22,52.3L21.22,52.3 L21.22,52.3z M13.65,24.25h7.67c0.59,0,1.07,0.5,1.07,1.07v2.18c0,0.58-0.5,1.07-1.07,1.07h-7.67c-0.58,0-1.07-0.48-1.07-1.07 v-2.18C12.57,24.73,13.05,24.25,13.65,24.25L13.65,24.25z M26.35,13.12h29.68c0.59,0,1.07,0.49,1.07,1.07v2.18 c0,0.59-0.49,1.07-1.07,1.07H26.35c-0.59,0-1.07-0.48-1.07-1.07v-2.18C25.28,13.6,25.76,13.12,26.35,13.12L26.35,13.12z M13.65,13.12h7.67c0.59,0,1.07,0.48,1.07,1.07v2.18c0,0.59-0.48,1.07-1.07,1.07h-7.67c-0.59,0-1.07-0.48-1.07-1.07v-2.18 C12.57,13.6,13.05,13.12,13.65,13.12L13.65,13.12z M38.36,24.25h49.25c0.59,0,1.07,0.5,1.07,1.07v2.18c0,0.57-0.5,1.07-1.07,1.07 H38.36c-0.58,0-1.07-0.48-1.07-1.07v-2.18C37.29,24.73,37.77,24.25,38.36,24.25L38.36,24.25z M26.21,24.25h7.67 c0.59,0,1.07,0.5,1.07,1.07v2.18c0,0.58-0.5,1.07-1.07,1.07h-7.67c-0.58,0-1.07-0.48-1.07-1.07v-2.18 C25.13,24.73,25.62,24.25,26.21,24.25L26.21,24.25z M46.29,88.27h30.3c0.08,5.24,2.24,9.93,8.09,13.63H38.2 C42.88,98.51,46.31,94.39,46.29,88.27L46.29,88.27L46.29,88.27L46.29,88.27z"/></g></svg>